<?xml version="1.0" encoding="utf-8" standalone="no"?>
<!DOCTYPE svg PUBLIC "-//W3C//DTD SVG 1.1//EN"
  "http://www.w3.org/Graphics/SVG/1.1/DTD/svg11.dtd">
<svg xmlns:xlink="http://www.w3.org/1999/xlink" width="360pt" height="360pt" viewBox="0 0 360 360" xmlns="http://www.w3.org/2000/svg" version="1.1">
 <metadata>
  <rdf:RDF xmlns:dc="http://purl.org/dc/elements/1.1/" xmlns:cc="http://creativecommons.org/ns#" xmlns:rdf="http://www.w3.org/1999/02/22-rdf-syntax-ns#">
   <cc:Work>
    <dc:type rdf:resource="http://purl.org/dc/dcmitype/StillImage"/>
    <dc:date>2023-11-28T01:32:37.528376</dc:date>
    <dc:format>image/svg+xml</dc:format>
    <dc:creator>
     <cc:Agent>
      <dc:title>Matplotlib v3.8.2, https://matplotlib.org/</dc:title>
     </cc:Agent>
    </dc:creator>
   </cc:Work>
  </rdf:RDF>
 </metadata>
 <defs>
  <style type="text/css">*{stroke-linejoin: round; stroke-linecap: butt}</style>
 </defs>
 <g id="figure_1">
  <g id="patch_1">
   <path d="M 0 360 
L 360 360 
L 360 0 
L 0 0 
z
" style="fill: #ffffff"/>
  </g>
  <g id="axes_1">
   <g id="patch_2">
    <path d="M 333.782885 187.559063 
C 333.782885 167.782237 329.887282 148.197716 322.319018 129.926312 
C 314.750755 111.654908 303.657015 95.051953 289.672687 81.067625 
C 275.68836 67.083298 259.085405 55.989558 240.814001 48.421294 
C 222.542596 40.853031 202.958076 36.957428 183.18125 36.957428 
C 163.404424 36.957428 143.819904 40.853031 125.548499 48.421294 
C 107.277095 55.989558 90.67414 67.083298 76.689813 81.067625 
C 62.705485 95.051953 51.611745 111.654908 44.043482 129.926312 
C 36.475218 148.197716 32.579615 167.782237 32.579615 187.559063 
C 32.579615 207.335888 36.475218 226.920409 44.043482 245.191813 
C 51.611745 263.463217 62.705485 280.066172 76.689813 294.0505 
C 90.67414 308.034827 107.277095 319.128567 125.548499 326.696831 
C 143.819904 334.265094 163.404424 338.160698 183.18125 338.160698 
C 202.958076 338.160698 222.542596 334.265094 240.814001 326.696831 
C 259.085405 319.128567 275.68836 308.034827 289.672687 294.0505 
C 303.657015 280.066172 314.750755 263.463217 322.319018 245.191813 
C 329.887282 226.920409 333.782885 207.335888 333.782885 187.559063 
M 183.18125 187.559063 
C 183.18125 187.559063 183.18125 187.559063 183.18125 187.559063 
C 183.18125 187.559063 183.18125 187.559063 183.18125 187.559063 
C 183.18125 187.559063 183.18125 187.559063 183.18125 187.559063 
C 183.18125 187.559063 183.18125 187.559063 183.18125 187.559063 
C 183.18125 187.559063 183.18125 187.559063 183.18125 187.559063 
C 183.18125 187.559063 183.18125 187.559063 183.18125 187.559063 
C 183.18125 187.559063 183.18125 187.559063 183.18125 187.559063 
C 183.18125 187.559063 183.18125 187.559063 183.18125 187.559063 
C 183.18125 187.559063 183.18125 187.559063 183.18125 187.559063 
C 183.18125 187.559063 183.18125 187.559063 183.18125 187.559063 
C 183.18125 187.559063 183.18125 187.559063 183.18125 187.559063 
C 183.18125 187.559063 183.18125 187.559063 183.18125 187.559063 
C 183.18125 187.559063 183.18125 187.559063 183.18125 187.559063 
C 183.18125 187.559063 183.18125 187.559063 183.18125 187.559063 
C 183.18125 187.559063 183.18125 187.559063 183.18125 187.559063 
C 183.18125 187.559063 183.18125 187.559063 183.18125 187.559063 
z
" style="fill: #ffffff"/>
   </g>
   <g id="PolyCollection_1">
    <defs>
     <path id="m3f23db7635" d="M 326.937356 -172.440937 
L 235.663638 -172.440937 
L 235.6626 -172.771022 
L 235.659486 -173.101093 
L 235.654296 -173.431139 
L 235.64703 -173.761145 
L 235.637689 -174.091099 
L 235.626273 -174.420987 
L 235.612782 -174.750798 
L 235.597218 -175.080517 
L 235.579579 -175.410131 
L 235.559869 -175.739628 
L 235.538086 -176.068995 
L 235.514232 -176.398218 
L 235.488308 -176.727284 
L 235.460314 -177.056181 
L 235.430253 -177.384896 
L 235.398125 -177.713415 
L 235.363931 -178.041725 
L 235.327673 -178.369814 
L 235.289353 -178.697668 
L 235.248971 -179.025275 
L 235.206529 -179.352621 
L 235.16203 -179.679694 
L 235.115474 -180.00648 
L 235.066864 -180.332967 
L 235.016201 -180.659142 
L 234.963488 -180.984992 
L 234.908727 -181.310504 
L 234.851919 -181.635665 
L 234.793067 -181.960463 
L 234.732174 -182.284883 
L 234.669242 -182.608915 
L 234.604272 -182.932544 
L 234.537269 -183.255758 
L 234.468234 -183.578544 
L 234.397171 -183.90089 
L 234.324081 -184.222783 
L 234.248968 -184.544209 
L 234.171836 -184.865157 
L 234.092686 -185.185613 
L 234.011522 -185.505565 
L 233.928348 -185.825 
L 233.843166 -186.143906 
L 233.75598 -186.46227 
L 233.666793 -186.780079 
L 233.57561 -187.09732 
L 233.482433 -187.413983 
L 233.387266 -187.730052 
L 233.290113 -188.045517 
L 233.190978 -188.360365 
L 233.089864 -188.674583 
L 232.986777 -188.988159 
L 232.881719 -189.30108 
L 232.774695 -189.613334 
L 232.66571 -189.924909 
L 232.554767 -190.235793 
L 232.441871 -190.545972 
L 232.327026 -190.855436 
L 232.210237 -191.16417 
L 232.091509 -191.472165 
L 231.970846 -191.779406 
L 231.848253 -192.085883 
L 231.723735 -192.391582 
L 315.43328 -226.795658 
L 315.43328 -226.795658 
L 315.79534 -225.972003 
L 316.1519 -225.145796 
L 316.502941 -224.317076 
L 316.848445 -223.485884 
L 317.188394 -222.652258 
L 317.522769 -221.816237 
L 317.851554 -220.97786 
L 318.17473 -220.137168 
L 318.492281 -219.2942 
L 318.80419 -218.448996 
L 319.110441 -217.601596 
L 319.411017 -216.75204 
L 319.705903 -215.900369 
L 319.995083 -215.046622 
L 320.278541 -214.190839 
L 320.556264 -213.333063 
L 320.828236 -212.473333 
L 321.094442 -211.61169 
L 321.35487 -210.748175 
L 321.609505 -209.88283 
L 321.858333 -209.015694 
L 322.101342 -208.14681 
L 322.338518 -207.276219 
L 322.56985 -206.403962 
L 322.795325 -205.530081 
L 323.01493 -204.654617 
L 323.228655 -203.777612 
L 323.436489 -202.899108 
L 323.638419 -202.019147 
L 323.834437 -201.13777 
L 324.02453 -200.25502 
L 324.20869 -199.370939 
L 324.386906 -198.485569 
L 324.559169 -197.598953 
L 324.72547 -196.711131 
L 324.8858 -195.822148 
L 325.04015 -194.932046 
L 325.188514 -194.040866 
L 325.330882 -193.148652 
L 325.467247 -192.255446 
L 325.597602 -191.361292 
L 325.72194 -190.466231 
L 325.840254 -189.570306 
L 325.952539 -188.673562 
L 326.058788 -187.776039 
L 326.158996 -186.877782 
L 326.253157 -185.978833 
L 326.341266 -185.079235 
L 326.42332 -184.179032 
L 326.499312 -183.278267 
L 326.56924 -182.376982 
L 326.6331 -181.475221 
L 326.690888 -180.573027 
L 326.742601 -179.670443 
L 326.788237 -178.767513 
L 326.827793 -177.86428 
L 326.861267 -176.960787 
L 326.888657 -176.057077 
L 326.909962 -175.153194 
L 326.925181 -174.249181 
L 326.934312 -173.345081 
L 326.937356 -172.440937 
z
" style="stroke: #0000ff; stroke-opacity: 0.3"/>
    </defs>
    <g clip-path="url(#pa41dba40e5)">
     <use xlink:href="#m3f23db7635" x="0" y="360" style="fill: #0000ff; fill-opacity: 0.3; stroke: #0000ff; stroke-opacity: 0.3"/>
    </g>
   </g>
   <g id="matplotlib.axis_1">
    <g id="xtick_1">
     <g id="line2d_1">
      <path d="M 183.18125 187.559063 
L 333.782885 187.559063 
" clip-path="url(#pa41dba40e5)" style="fill: none; stroke: #b0b0b0; stroke-width: 0.8; stroke-linecap: square"/>
     </g>
     <g id="text_1">
      <!-- 0° -->
      <g transform="translate(342.101635 190.318438) scale(0.1 -0.1)">
       <defs>
        <path id="DejaVuSans-30" d="M 2034 4250 
Q 1547 4250 1301 3770 
Q 1056 3291 1056 2328 
Q 1056 1369 1301 889 
Q 1547 409 2034 409 
Q 2525 409 2770 889 
Q 3016 1369 3016 2328 
Q 3016 3291 2770 3770 
Q 2525 4250 2034 4250 
z
M 2034 4750 
Q 2819 4750 3233 4129 
Q 3647 3509 3647 2328 
Q 3647 1150 3233 529 
Q 2819 -91 2034 -91 
Q 1250 -91 836 529 
Q 422 1150 422 2328 
Q 422 3509 836 4129 
Q 1250 4750 2034 4750 
z
" transform="scale(0.015625)"/>
        <path id="DejaVuSans-b0" d="M 1600 4347 
Q 1350 4347 1178 4173 
Q 1006 4000 1006 3750 
Q 1006 3503 1178 3333 
Q 1350 3163 1600 3163 
Q 1850 3163 2022 3333 
Q 2194 3503 2194 3750 
Q 2194 3997 2020 4172 
Q 1847 4347 1600 4347 
z
M 1600 4750 
Q 1800 4750 1984 4673 
Q 2169 4597 2303 4453 
Q 2447 4313 2519 4134 
Q 2591 3956 2591 3750 
Q 2591 3338 2302 3052 
Q 2013 2766 1594 2766 
Q 1172 2766 890 3047 
Q 609 3328 609 3750 
Q 609 4169 896 4459 
Q 1184 4750 1600 4750 
z
" transform="scale(0.015625)"/>
       </defs>
       <use xlink:href="#DejaVuSans-30"/>
       <use xlink:href="#DejaVuSans-b0" x="63.623047"/>
      </g>
     </g>
    </g>
    <g id="xtick_2">
     <g id="line2d_2">
      <path d="M 183.18125 187.559063 
L 313.606092 112.258245 
" clip-path="url(#pa41dba40e5)" style="fill: none; stroke: #b0b0b0; stroke-width: 0.8; stroke-linecap: square"/>
     </g>
     <g id="text_2">
      <!-- 30° -->
      <g transform="translate(316.867947 108.01762) scale(0.1 -0.1)">
       <defs>
        <path id="DejaVuSans-33" d="M 2597 2516 
Q 3050 2419 3304 2112 
Q 3559 1806 3559 1356 
Q 3559 666 3084 287 
Q 2609 -91 1734 -91 
Q 1441 -91 1130 -33 
Q 819 25 488 141 
L 488 750 
Q 750 597 1062 519 
Q 1375 441 1716 441 
Q 2309 441 2620 675 
Q 2931 909 2931 1356 
Q 2931 1769 2642 2001 
Q 2353 2234 1838 2234 
L 1294 2234 
L 1294 2753 
L 1863 2753 
Q 2328 2753 2575 2939 
Q 2822 3125 2822 3475 
Q 2822 3834 2567 4026 
Q 2313 4219 1838 4219 
Q 1578 4219 1281 4162 
Q 984 4106 628 3988 
L 628 4550 
Q 988 4650 1302 4700 
Q 1616 4750 1894 4750 
Q 2613 4750 3031 4423 
Q 3450 4097 3450 3541 
Q 3450 3153 3228 2886 
Q 3006 2619 2597 2516 
z
" transform="scale(0.015625)"/>
       </defs>
       <use xlink:href="#DejaVuSans-33"/>
       <use xlink:href="#DejaVuSans-30" x="63.623047"/>
       <use xlink:href="#DejaVuSans-b0" x="127.246094"/>
      </g>
     </g>
    </g>
    <g id="xtick_3">
     <g id="line2d_3">
      <path d="M 183.18125 187.559063 
L 258.482068 57.134221 
" clip-path="url(#pa41dba40e5)" style="fill: none; stroke: #b0b0b0; stroke-width: 0.8; stroke-linecap: square"/>
     </g>
     <g id="text_3">
      <!-- 60° -->
      <g transform="translate(256.619568 47.76924) scale(0.1 -0.1)">
       <defs>
        <path id="DejaVuSans-36" d="M 2113 2584 
Q 1688 2584 1439 2293 
Q 1191 2003 1191 1497 
Q 1191 994 1439 701 
Q 1688 409 2113 409 
Q 2538 409 2786 701 
Q 3034 994 3034 1497 
Q 3034 2003 2786 2293 
Q 2538 2584 2113 2584 
z
M 3366 4563 
L 3366 3988 
Q 3128 4100 2886 4159 
Q 2644 4219 2406 4219 
Q 1781 4219 1451 3797 
Q 1122 3375 1075 2522 
Q 1259 2794 1537 2939 
Q 1816 3084 2150 3084 
Q 2853 3084 3261 2657 
Q 3669 2231 3669 1497 
Q 3669 778 3244 343 
Q 2819 -91 2113 -91 
Q 1303 -91 875 529 
Q 447 1150 447 2328 
Q 447 3434 972 4092 
Q 1497 4750 2381 4750 
Q 2619 4750 2861 4703 
Q 3103 4656 3366 4563 
z
" transform="scale(0.015625)"/>
       </defs>
       <use xlink:href="#DejaVuSans-36"/>
       <use xlink:href="#DejaVuSans-30" x="63.623047"/>
       <use xlink:href="#DejaVuSans-b0" x="127.246094"/>
      </g>
     </g>
    </g>
    <g id="xtick_4">
     <g id="line2d_4">
      <path d="M 183.18125 187.559063 
L 183.18125 36.957428 
" clip-path="url(#pa41dba40e5)" style="fill: none; stroke: #b0b0b0; stroke-width: 0.8; stroke-linecap: square"/>
     </g>
     <g id="text_4">
      <!-- 90° -->
      <g transform="translate(174.31875 25.716802) scale(0.1 -0.1)">
       <defs>
        <path id="DejaVuSans-39" d="M 703 97 
L 703 672 
Q 941 559 1184 500 
Q 1428 441 1663 441 
Q 2288 441 2617 861 
Q 2947 1281 2994 2138 
Q 2813 1869 2534 1725 
Q 2256 1581 1919 1581 
Q 1219 1581 811 2004 
Q 403 2428 403 3163 
Q 403 3881 828 4315 
Q 1253 4750 1959 4750 
Q 2769 4750 3195 4129 
Q 3622 3509 3622 2328 
Q 3622 1225 3098 567 
Q 2575 -91 1691 -91 
Q 1453 -91 1209 -44 
Q 966 3 703 97 
z
M 1959 2075 
Q 2384 2075 2632 2365 
Q 2881 2656 2881 3163 
Q 2881 3666 2632 3958 
Q 2384 4250 1959 4250 
Q 1534 4250 1286 3958 
Q 1038 3666 1038 3163 
Q 1038 2656 1286 2365 
Q 1534 2075 1959 2075 
z
" transform="scale(0.015625)"/>
       </defs>
       <use xlink:href="#DejaVuSans-39"/>
       <use xlink:href="#DejaVuSans-30" x="63.623047"/>
       <use xlink:href="#DejaVuSans-b0" x="127.246094"/>
      </g>
     </g>
    </g>
    <g id="xtick_5">
     <g id="line2d_5">
      <path d="M 183.18125 187.559063 
L 107.880433 57.134221 
" clip-path="url(#pa41dba40e5)" style="fill: none; stroke: #b0b0b0; stroke-width: 0.8; stroke-linecap: square"/>
     </g>
     <g id="text_5">
      <!-- 120° -->
      <g transform="translate(88.836683 47.76924) scale(0.1 -0.1)">
       <defs>
        <path id="DejaVuSans-31" d="M 794 531 
L 1825 531 
L 1825 4091 
L 703 3866 
L 703 4441 
L 1819 4666 
L 2450 4666 
L 2450 531 
L 3481 531 
L 3481 0 
L 794 0 
L 794 531 
z
" transform="scale(0.015625)"/>
        <path id="DejaVuSans-32" d="M 1228 531 
L 3431 531 
L 3431 0 
L 469 0 
L 469 531 
Q 828 903 1448 1529 
Q 2069 2156 2228 2338 
Q 2531 2678 2651 2914 
Q 2772 3150 2772 3378 
Q 2772 3750 2511 3984 
Q 2250 4219 1831 4219 
Q 1534 4219 1204 4116 
Q 875 4013 500 3803 
L 500 4441 
Q 881 4594 1212 4672 
Q 1544 4750 1819 4750 
Q 2544 4750 2975 4387 
Q 3406 4025 3406 3419 
Q 3406 3131 3298 2873 
Q 3191 2616 2906 2266 
Q 2828 2175 2409 1742 
Q 1991 1309 1228 531 
z
" transform="scale(0.015625)"/>
       </defs>
       <use xlink:href="#DejaVuSans-31"/>
       <use xlink:href="#DejaVuSans-32" x="63.623047"/>
       <use xlink:href="#DejaVuSans-30" x="127.246094"/>
       <use xlink:href="#DejaVuSans-b0" x="190.869141"/>
      </g>
     </g>
    </g>
    <g id="xtick_6">
     <g id="line2d_6">
      <path d="M 183.18125 187.559063 
L 52.756408 112.258245 
" clip-path="url(#pa41dba40e5)" style="fill: none; stroke: #b0b0b0; stroke-width: 0.8; stroke-linecap: square"/>
     </g>
     <g id="text_6">
      <!-- 150° -->
      <g transform="translate(28.588303 108.01762) scale(0.1 -0.1)">
       <defs>
        <path id="DejaVuSans-35" d="M 691 4666 
L 3169 4666 
L 3169 4134 
L 1269 4134 
L 1269 2991 
Q 1406 3038 1543 3061 
Q 1681 3084 1819 3084 
Q 2600 3084 3056 2656 
Q 3513 2228 3513 1497 
Q 3513 744 3044 326 
Q 2575 -91 1722 -91 
Q 1428 -91 1123 -41 
Q 819 9 494 109 
L 494 744 
Q 775 591 1075 516 
Q 1375 441 1709 441 
Q 2250 441 2565 725 
Q 2881 1009 2881 1497 
Q 2881 1984 2565 2268 
Q 2250 2553 1709 2553 
Q 1456 2553 1204 2497 
Q 953 2441 691 2322 
L 691 4666 
z
" transform="scale(0.015625)"/>
       </defs>
       <use xlink:href="#DejaVuSans-31"/>
       <use xlink:href="#DejaVuSans-35" x="63.623047"/>
       <use xlink:href="#DejaVuSans-30" x="127.246094"/>
       <use xlink:href="#DejaVuSans-b0" x="190.869141"/>
      </g>
     </g>
    </g>
    <g id="xtick_7">
     <g id="line2d_7">
      <path d="M 183.18125 187.559063 
L 32.579615 187.559062 
" clip-path="url(#pa41dba40e5)" style="fill: none; stroke: #b0b0b0; stroke-width: 0.8; stroke-linecap: square"/>
     </g>
     <g id="text_7">
      <!-- 180° -->
      <g transform="translate(6.535865 190.318437) scale(0.1 -0.1)">
       <defs>
        <path id="DejaVuSans-38" d="M 2034 2216 
Q 1584 2216 1326 1975 
Q 1069 1734 1069 1313 
Q 1069 891 1326 650 
Q 1584 409 2034 409 
Q 2484 409 2743 651 
Q 3003 894 3003 1313 
Q 3003 1734 2745 1975 
Q 2488 2216 2034 2216 
z
M 1403 2484 
Q 997 2584 770 2862 
Q 544 3141 544 3541 
Q 544 4100 942 4425 
Q 1341 4750 2034 4750 
Q 2731 4750 3128 4425 
Q 3525 4100 3525 3541 
Q 3525 3141 3298 2862 
Q 3072 2584 2669 2484 
Q 3125 2378 3379 2068 
Q 3634 1759 3634 1313 
Q 3634 634 3220 271 
Q 2806 -91 2034 -91 
Q 1263 -91 848 271 
Q 434 634 434 1313 
Q 434 1759 690 2068 
Q 947 2378 1403 2484 
z
M 1172 3481 
Q 1172 3119 1398 2916 
Q 1625 2713 2034 2713 
Q 2441 2713 2670 2916 
Q 2900 3119 2900 3481 
Q 2900 3844 2670 4047 
Q 2441 4250 2034 4250 
Q 1625 4250 1398 4047 
Q 1172 3844 1172 3481 
z
" transform="scale(0.015625)"/>
       </defs>
       <use xlink:href="#DejaVuSans-31"/>
       <use xlink:href="#DejaVuSans-38" x="63.623047"/>
       <use xlink:href="#DejaVuSans-30" x="127.246094"/>
       <use xlink:href="#DejaVuSans-b0" x="190.869141"/>
      </g>
     </g>
    </g>
    <g id="xtick_8">
     <g id="line2d_8">
      <path d="M 183.18125 187.559063 
L 52.756408 262.85988 
" clip-path="url(#pa41dba40e5)" style="fill: none; stroke: #b0b0b0; stroke-width: 0.8; stroke-linecap: square"/>
     </g>
     <g id="text_8">
      <!-- 210° -->
      <g transform="translate(28.588303 272.619255) scale(0.1 -0.1)">
       <use xlink:href="#DejaVuSans-32"/>
       <use xlink:href="#DejaVuSans-31" x="63.623047"/>
       <use xlink:href="#DejaVuSans-30" x="127.246094"/>
       <use xlink:href="#DejaVuSans-b0" x="190.869141"/>
      </g>
     </g>
    </g>
    <g id="xtick_9">
     <g id="line2d_9">
      <path d="M 183.18125 187.559063 
L 107.880432 317.983904 
" clip-path="url(#pa41dba40e5)" style="fill: none; stroke: #b0b0b0; stroke-width: 0.8; stroke-linecap: square"/>
     </g>
     <g id="text_9">
      <!-- 240° -->
      <g transform="translate(88.836682 332.867635) scale(0.1 -0.1)">
       <defs>
        <path id="DejaVuSans-34" d="M 2419 4116 
L 825 1625 
L 2419 1625 
L 2419 4116 
z
M 2253 4666 
L 3047 4666 
L 3047 1625 
L 3713 1625 
L 3713 1100 
L 3047 1100 
L 3047 0 
L 2419 0 
L 2419 1100 
L 313 1100 
L 313 1709 
L 2253 4666 
z
" transform="scale(0.015625)"/>
       </defs>
       <use xlink:href="#DejaVuSans-32"/>
       <use xlink:href="#DejaVuSans-34" x="63.623047"/>
       <use xlink:href="#DejaVuSans-30" x="127.246094"/>
       <use xlink:href="#DejaVuSans-b0" x="190.869141"/>
      </g>
     </g>
    </g>
    <g id="xtick_10">
     <g id="line2d_10">
      <path d="M 183.18125 187.559063 
L 183.18125 338.160697 
" clip-path="url(#pa41dba40e5)" style="fill: none; stroke: #b0b0b0; stroke-width: 0.8; stroke-linecap: square"/>
     </g>
     <g id="text_10">
      <!-- 270° -->
      <g transform="translate(171.1375 354.920073) scale(0.1 -0.1)">
       <defs>
        <path id="DejaVuSans-37" d="M 525 4666 
L 3525 4666 
L 3525 4397 
L 1831 0 
L 1172 0 
L 2766 4134 
L 525 4134 
L 525 4666 
z
" transform="scale(0.015625)"/>
       </defs>
       <use xlink:href="#DejaVuSans-32"/>
       <use xlink:href="#DejaVuSans-37" x="63.623047"/>
       <use xlink:href="#DejaVuSans-30" x="127.246094"/>
       <use xlink:href="#DejaVuSans-b0" x="190.869141"/>
      </g>
     </g>
    </g>
    <g id="xtick_11">
     <g id="line2d_11">
      <path d="M 183.18125 187.559063 
L 258.482068 317.983904 
" clip-path="url(#pa41dba40e5)" style="fill: none; stroke: #b0b0b0; stroke-width: 0.8; stroke-linecap: square"/>
     </g>
     <g id="text_11">
      <!-- 300° -->
      <g transform="translate(253.438318 332.867635) scale(0.1 -0.1)">
       <use xlink:href="#DejaVuSans-33"/>
       <use xlink:href="#DejaVuSans-30" x="63.623047"/>
       <use xlink:href="#DejaVuSans-30" x="127.246094"/>
       <use xlink:href="#DejaVuSans-b0" x="190.869141"/>
      </g>
     </g>
    </g>
    <g id="xtick_12">
     <g id="line2d_12">
      <path d="M 183.18125 187.559063 
L 313.606092 262.85988 
" clip-path="url(#pa41dba40e5)" style="fill: none; stroke: #b0b0b0; stroke-width: 0.8; stroke-linecap: square"/>
     </g>
     <g id="text_12">
      <!-- 330° -->
      <g transform="translate(313.686697 272.619255) scale(0.1 -0.1)">
       <use xlink:href="#DejaVuSans-33"/>
       <use xlink:href="#DejaVuSans-33" x="63.623047"/>
       <use xlink:href="#DejaVuSans-30" x="127.246094"/>
       <use xlink:href="#DejaVuSans-b0" x="190.869141"/>
      </g>
     </g>
    </g>
   </g>
   <g id="matplotlib.axis_2">
    <g id="ytick_1">
     <g id="line2d_13">
      <path d="M 235.663638 187.559063 
C 235.663638 180.667138 234.306079 173.84223 231.668654 167.474922 
C 229.031229 161.107615 225.165229 155.321736 220.291902 150.44841 
C 215.418576 145.575084 209.632698 141.709084 203.26539 139.071658 
C 196.898083 136.434233 190.073174 135.076675 183.18125 135.076675 
C 176.289326 135.076675 169.464417 136.434233 163.09711 139.071658 
C 156.729802 141.709084 150.943924 145.575084 146.070598 150.44841 
C 141.197271 155.321736 137.331271 161.107615 134.693846 167.474922 
C 132.056421 173.84223 130.698862 180.667138 130.698862 187.559063 
C 130.698862 194.450987 132.056421 201.275895 134.693846 207.643203 
C 137.331271 214.01051 141.197271 219.796389 146.070598 224.669715 
C 150.943924 229.543041 156.729802 233.409041 163.09711 236.046467 
C 169.464417 238.683892 176.289326 240.04145 183.18125 240.04145 
C 190.073174 240.04145 196.898083 238.683892 203.26539 236.046467 
C 209.632698 233.409041 215.418576 229.543041 220.291902 224.669715 
C 225.165229 219.796389 229.031229 214.01051 231.668654 207.643203 
C 234.306079 201.275895 235.663638 194.450987 235.663638 187.559063 
" clip-path="url(#pa41dba40e5)" style="fill: none; stroke: #b0b0b0; stroke-width: 0.8; stroke-linecap: square"/>
     </g>
     <g id="text_13">
      <!-- 0 -->
      <g transform="translate(231.668654 165.395235) scale(0.1 -0.1)">
       <use xlink:href="#DejaVuSans-30"/>
      </g>
     </g>
    </g>
    <g id="ytick_2">
     <g id="line2d_14">
      <path d="M 281.300497 187.559063 
C 281.300497 174.674161 278.762452 161.914549 273.831614 150.010452 
C 268.900776 138.106356 261.673036 127.289279 252.562035 118.178278 
C 243.451034 109.067276 232.633957 101.839537 220.72986 96.908698 
C 208.825763 91.97786 196.066151 89.439815 183.18125 89.439815 
C 170.296349 89.439815 157.536737 91.97786 145.63264 96.908698 
C 133.728543 101.839537 122.911466 109.067276 113.800465 118.178278 
C 104.689464 127.289279 97.461724 138.106356 92.530886 150.010452 
C 87.600048 161.914549 85.062003 174.674161 85.062003 187.559063 
C 85.062003 200.443964 87.600048 213.203576 92.530886 225.107673 
C 97.461724 237.011769 104.689464 247.828846 113.800465 256.939847 
C 122.911466 266.050849 133.728543 273.278588 145.63264 278.209427 
C 157.536737 283.140265 170.296349 285.67831 183.18125 285.67831 
C 196.066151 285.67831 208.825763 283.140265 220.72986 278.209427 
C 232.633957 273.278588 243.451034 266.050849 252.562035 256.939847 
C 261.673036 247.828846 268.900776 237.011769 273.831614 225.107673 
C 278.762452 213.203576 281.300497 200.443964 281.300497 187.559063 
" clip-path="url(#pa41dba40e5)" style="fill: none; stroke: #b0b0b0; stroke-width: 0.8; stroke-linecap: square"/>
     </g>
     <g id="text_14">
      <!-- 1 -->
      <g transform="translate(273.831614 147.930765) scale(0.1 -0.1)">
       <use xlink:href="#DejaVuSans-31"/>
      </g>
     </g>
    </g>
    <g id="ytick_3">
     <g id="line2d_15">
      <path d="M 326.937356 187.559063 
C 326.937356 168.681184 323.218826 149.986868 315.994574 132.545982 
C 308.770323 115.105096 298.180844 99.256821 284.832167 85.908145 
C 271.483491 72.559469 255.635216 61.96999 238.19433 54.745738 
C 220.753444 47.521487 202.059129 43.802956 183.18125 43.802956 
C 164.303371 43.802956 145.609056 47.521487 128.16817 54.745738 
C 110.727284 61.96999 94.879009 72.559469 81.530333 85.908145 
C 68.181656 99.256821 57.592177 115.105096 50.367926 132.545982 
C 43.143674 149.986868 39.425144 168.681184 39.425144 187.559062 
C 39.425144 206.436941 43.143674 225.131257 50.367926 242.572143 
C 57.592177 260.013029 68.181656 275.861304 81.530333 289.20998 
C 94.879009 302.558656 110.727284 313.148135 128.16817 320.372387 
C 145.609056 327.596638 164.303371 331.315169 183.18125 331.315169 
C 202.059129 331.315169 220.753444 327.596638 238.19433 320.372387 
C 255.635216 313.148135 271.483491 302.558656 284.832167 289.20998 
C 298.180844 275.861304 308.770323 260.013029 315.994574 242.572143 
C 323.218826 225.131257 326.937356 206.436941 326.937356 187.559063 
" clip-path="url(#pa41dba40e5)" style="fill: none; stroke: #b0b0b0; stroke-width: 0.8; stroke-linecap: square"/>
     </g>
     <g id="text_15">
      <!-- 2 -->
      <g transform="translate(315.994574 130.466295) scale(0.1 -0.1)">
       <use xlink:href="#DejaVuSans-32"/>
      </g>
     </g>
    </g>
   </g>
   <g id="line2d_16">
    <path d="M 326.937356 187.559063 
L 326.827793 182.13572 
L 326.499312 176.721733 
L 325.952539 171.326438 
L 325.188514 165.959134 
L 324.20869 160.629061 
L 323.01493 155.345383 
L 321.609505 150.11717 
L 319.995083 144.953378 
L 318.17473 139.862832 
L 316.1519 134.854204 
L 313.930427 129.936003 
L 311.514519 125.116549 
L 308.908748 120.403964 
L 306.118037 115.80615 
L 303.147657 111.330775 
L 300.003206 106.985259 
L 296.690604 102.776756 
L 293.216078 98.712144 
L 289.58615 94.798006 
L 285.807619 91.040624 
L 281.887551 87.44596 
L 277.83326 84.019648 
L 273.652297 80.766982 
L 269.352429 77.692907 
L 264.941626 74.802008 
L 260.428042 72.098506 
L 255.819997 69.586242 
L 251.125962 67.268678 
L 246.35454 65.148888 
L 241.514447 63.229552 
L 236.614492 61.512954 
L 231.663565 60.000976 
L 226.670608 58.695097 
L 221.644607 57.596392 
L 216.594565 56.70553 
L 211.529489 56.022774 
L 206.458365 55.547984 
L 201.390146 55.280617 
L 196.333731 55.219731 
L 191.297943 55.363986 
L 186.291518 55.711653 
L 181.32308 56.260616 
L 176.401128 57.008381 
L 171.534019 57.952078 
L 166.729948 59.088474 
L 161.996932 60.413981 
L 157.342799 61.924662 
L 152.775166 63.616243 
L 148.301429 65.484125 
L 143.928744 67.523395 
L 139.664018 69.728836 
L 135.513893 72.094941 
L 131.484734 74.615928 
L 127.582616 77.285751 
L 123.813317 80.098118 
L 120.1823 83.0465 
L 116.694712 86.124154 
L 112.813544 89.868856 
L 109.141207 93.768697 
L 105.684125 97.81202 
L 102.448072 101.986893 
L 99.43815 106.281148 
L 96.658791 110.682421 
L 94.11374 115.178186 
L 91.806054 119.755794 
L 89.738099 124.402515 
L 87.911548 129.105571 
L 86.327382 133.852177 
L 84.985893 138.629577 
L 83.886691 143.425086 
L 83.02871 148.226123 
L 82.410217 153.020247 
L 82.028825 157.795198 
L 81.881504 162.538925 
L 81.964599 167.239625 
L 82.273847 171.885778 
L 82.804392 176.466171 
L 83.550812 180.969938 
L 84.507137 185.386582 
L 85.666871 189.706009 
L 87.023023 193.91855 
L 88.568129 198.014989 
L 90.294284 201.986585 
L 92.193165 205.825095 
L 94.256068 209.522793 
L 96.473935 213.072487 
L 98.837388 216.467539 
L 101.336759 219.701876 
L 103.962128 222.770003 
L 106.703353 225.667016 
L 109.550107 228.388608 
L 112.49191 230.931075 
L 115.956762 233.613475 
L 119.515978 236.054257 
L 123.153545 238.250822 
L 126.853448 240.201616 
L 130.599736 241.906114 
L 134.376588 243.364809 
L 138.168379 244.579202 
L 141.959742 245.551771 
L 145.735631 246.285955 
L 149.481378 246.78612 
L 153.182754 247.057529 
L 156.826022 247.106306 
L 160.397988 246.939395 
L 163.886051 246.56452 
L 167.278251 245.990138 
L 170.563308 245.225391 
L 173.730664 244.280056 
L 176.770518 243.164494 
L 180.026759 241.719583 
L 183.098653 240.089224 
L 185.975958 238.290272 
L 188.649816 236.340123 
L 191.112784 234.256605 
L 193.358847 232.057872 
L 195.383435 229.762286 
L 197.183414 227.388314 
L 198.757091 224.954412 
L 200.104189 222.478925 
L 201.225829 219.979972 
L 202.124499 217.475348 
L 202.804015 214.982423 
L 203.308239 212.246698 
L 203.556991 209.568414 
L 203.560808 206.968697 
L 203.331889 204.467456 
L 202.883968 202.083246 
L 202.232185 199.833161 
L 201.392939 197.732722 
L 200.383746 195.795797 
L 199.22308 194.034515 
L 197.930212 192.459208 
L 196.52505 191.078362 
L 195.027969 189.898582 
L 193.459645 188.924572 
L 191.840884 188.15913 
L 190.192458 187.60316 
L 190.026779 187.559063 
L 190.026779 187.559063 
" clip-path="url(#pa41dba40e5)" style="fill: none; stroke: #1f77b4; stroke-width: 1.5; stroke-linecap: square"/>
   </g>
   <g id="patch_3">
    <path d="M 333.782885 187.559063 
C 333.782885 167.782237 329.887282 148.197716 322.319018 129.926312 
C 314.750755 111.654908 303.657015 95.051953 289.672687 81.067625 
C 275.68836 67.083298 259.085405 55.989558 240.814001 48.421294 
C 222.542596 40.853031 202.958076 36.957428 183.18125 36.957428 
C 163.404424 36.957428 143.819904 40.853031 125.548499 48.421294 
C 107.277095 55.989558 90.67414 67.083298 76.689813 81.067625 
C 62.705485 95.051953 51.611745 111.654908 44.043482 129.926312 
C 36.475218 148.197716 32.579615 167.782237 32.579615 187.559062 
C 32.579615 207.335888 36.475218 226.920409 44.043482 245.191813 
C 51.611745 263.463217 62.705485 280.066172 76.689813 294.0505 
C 90.67414 308.034827 107.277095 319.128567 125.548499 326.696831 
C 143.819904 334.265094 163.404424 338.160697 183.18125 338.160697 
C 202.958076 338.160697 222.542596 334.265094 240.814001 326.696831 
C 259.085405 319.128567 275.68836 308.034827 289.672687 294.0505 
C 303.657015 280.066172 314.750755 263.463217 322.319018 245.191813 
C 329.887282 226.920409 333.782885 207.335888 333.782885 187.559063 
" style="fill: none; stroke: #000000; stroke-width: 0.8; stroke-linejoin: miter; stroke-linecap: square"/>
   </g>
   <g id="text_16">
    <!-- График в полярных координатах -->
    <g transform="translate(77.921563 12.118365) scale(0.12 -0.12)">
     <defs>
      <path id="DejaVuSans-413" d="M 628 0 
L 628 4666 
L 3531 4666 
L 3531 4134 
L 1259 4134 
L 1259 0 
L 628 0 
z
" transform="scale(0.015625)"/>
      <path id="DejaVuSans-440" d="M 1159 525 
L 1159 -1331 
L 581 -1331 
L 581 3500 
L 1159 3500 
L 1159 2969 
Q 1341 3281 1617 3432 
Q 1894 3584 2278 3584 
Q 2916 3584 3314 3078 
Q 3713 2572 3713 1747 
Q 3713 922 3314 415 
Q 2916 -91 2278 -91 
Q 1894 -91 1617 61 
Q 1341 213 1159 525 
z
M 3116 1747 
Q 3116 2381 2855 2742 
Q 2594 3103 2138 3103 
Q 1681 3103 1420 2742 
Q 1159 2381 1159 1747 
Q 1159 1113 1420 752 
Q 1681 391 2138 391 
Q 2594 391 2855 752 
Q 3116 1113 3116 1747 
z
" transform="scale(0.015625)"/>
      <path id="DejaVuSans-430" d="M 2194 1759 
Q 1497 1759 1228 1600 
Q 959 1441 959 1056 
Q 959 750 1161 570 
Q 1363 391 1709 391 
Q 2188 391 2477 730 
Q 2766 1069 2766 1631 
L 2766 1759 
L 2194 1759 
z
M 3341 1997 
L 3341 0 
L 2766 0 
L 2766 531 
Q 2569 213 2275 61 
Q 1981 -91 1556 -91 
Q 1019 -91 701 211 
Q 384 513 384 1019 
Q 384 1609 779 1909 
Q 1175 2209 1959 2209 
L 2766 2209 
L 2766 2266 
Q 2766 2663 2505 2880 
Q 2244 3097 1772 3097 
Q 1472 3097 1187 3025 
Q 903 2953 641 2809 
L 641 3341 
Q 956 3463 1253 3523 
Q 1550 3584 1831 3584 
Q 2591 3584 2966 3190 
Q 3341 2797 3341 1997 
z
" transform="scale(0.015625)"/>
      <path id="DejaVuSans-444" d="M 947 1747 
Q 947 1013 1173 702 
Q 1400 391 1784 391 
Q 2091 391 2447 916 
L 2447 2578 
Q 2091 3103 1784 3103 
Q 1400 3103 1173 2792 
Q 947 2481 947 1747 
z
M 2447 -1331 
L 2447 447 
Q 2269 153 2064 31 
Q 1859 -91 1600 -91 
Q 1078 -91 714 392 
Q 350 875 350 1734 
Q 350 2594 714 3089 
Q 1078 3584 1600 3584 
Q 1859 3584 2064 3465 
Q 2269 3347 2447 3053 
L 2447 4666 
L 3025 4666 
L 3025 3053 
Q 3203 3347 3408 3465 
Q 3613 3584 3872 3584 
Q 4394 3584 4758 3089 
Q 5122 2594 5122 1734 
Q 5122 875 4758 392 
Q 4394 -91 3872 -91 
Q 3613 -91 3408 31 
Q 3203 153 3025 447 
L 3025 -1331 
L 2447 -1331 
z
M 4525 1747 
Q 4525 2481 4298 2792 
Q 4072 3103 3688 3103 
Q 3381 3103 3025 2578 
L 3025 916 
Q 3381 391 3688 391 
Q 4072 391 4298 702 
Q 4525 1013 4525 1747 
z
" transform="scale(0.015625)"/>
      <path id="DejaVuSans-438" d="M 3578 3500 
L 3578 0 
L 3006 0 
L 3006 2809 
L 1319 0 
L 581 0 
L 581 3500 
L 1153 3500 
L 1153 697 
L 2838 3500 
L 3578 3500 
z
" transform="scale(0.015625)"/>
      <path id="DejaVuSans-43a" d="M 581 3500 
L 1153 3500 
L 1153 1856 
L 2775 3500 
L 3481 3500 
L 2144 2147 
L 3653 0 
L 3009 0 
L 1769 1766 
L 1153 1141 
L 1153 0 
L 581 0 
L 581 3500 
z
" transform="scale(0.015625)"/>
      <path id="DejaVuSans-20" transform="scale(0.015625)"/>
      <path id="DejaVuSans-432" d="M 1156 1613 
L 1156 459 
L 1975 459 
Q 2369 459 2575 607 
Q 2781 756 2781 1038 
Q 2781 1319 2575 1466 
Q 2369 1613 1975 1613 
L 1156 1613 
z
M 1156 3041 
L 1156 2072 
L 1913 2072 
Q 2238 2072 2444 2201 
Q 2650 2331 2650 2563 
Q 2650 2794 2444 2917 
Q 2238 3041 1913 3041 
L 1156 3041 
z
M 581 3500 
L 1950 3500 
Q 2566 3500 2897 3275 
Q 3228 3050 3228 2634 
Q 3228 2313 3059 2123 
Q 2891 1934 2559 1888 
Q 2956 1813 3175 1575 
Q 3394 1338 3394 981 
Q 3394 513 3033 256 
Q 2672 0 2003 0 
L 581 0 
L 581 3500 
z
" transform="scale(0.015625)"/>
      <path id="DejaVuSans-43f" d="M 3603 3500 
L 3603 0 
L 3025 0 
L 3025 3041 
L 1159 3041 
L 1159 0 
L 581 0 
L 581 3500 
L 3603 3500 
z
" transform="scale(0.015625)"/>
      <path id="DejaVuSans-43e" d="M 1959 3097 
Q 1497 3097 1228 2736 
Q 959 2375 959 1747 
Q 959 1119 1226 758 
Q 1494 397 1959 397 
Q 2419 397 2687 759 
Q 2956 1122 2956 1747 
Q 2956 2369 2687 2733 
Q 2419 3097 1959 3097 
z
M 1959 3584 
Q 2709 3584 3137 3096 
Q 3566 2609 3566 1747 
Q 3566 888 3137 398 
Q 2709 -91 1959 -91 
Q 1206 -91 779 398 
Q 353 888 353 1747 
Q 353 2609 779 3096 
Q 1206 3584 1959 3584 
z
" transform="scale(0.015625)"/>
      <path id="DejaVuSans-43b" d="M 238 0 
L 238 478 
Q 806 566 981 959 
Q 1194 1513 1194 2928 
L 1194 3500 
L 3559 3500 
L 3559 0 
L 2984 0 
L 2984 3041 
L 1769 3041 
L 1769 2694 
Q 1769 1344 1494 738 
Q 1200 91 238 0 
z
" transform="scale(0.015625)"/>
      <path id="DejaVuSans-44f" d="M 1181 2491 
Q 1181 2231 1381 2084 
Q 1581 1938 1953 1938 
L 2728 1938 
L 2728 3041 
L 1953 3041 
Q 1581 3041 1381 2897 
Q 1181 2753 1181 2491 
z
M 363 0 
L 1431 1534 
Q 1069 1616 828 1830 
Q 588 2044 588 2491 
Q 588 2997 923 3248 
Q 1259 3500 1938 3500 
L 3306 3500 
L 3306 0 
L 2728 0 
L 2728 1478 
L 2013 1478 
L 981 0 
L 363 0 
z
" transform="scale(0.015625)"/>
      <path id="DejaVuSans-43d" d="M 581 3500 
L 1159 3500 
L 1159 2072 
L 3025 2072 
L 3025 3500 
L 3603 3500 
L 3603 0 
L 3025 0 
L 3025 1613 
L 1159 1613 
L 1159 0 
L 581 0 
L 581 3500 
z
" transform="scale(0.015625)"/>
      <path id="DejaVuSans-44b" d="M 3907 3500 
L 4482 3500 
L 4482 0 
L 3907 0 
L 3907 3500 
z
M 4195 3584 
L 4195 3584 
z
M 2781 1038 
Q 2781 1319 2576 1466 
Q 2372 1613 1978 1613 
L 1159 1613 
L 1159 459 
L 1978 459 
Q 2372 459 2576 607 
Q 2781 756 2781 1038 
z
M 581 3500 
L 1159 3500 
L 1159 2072 
L 2003 2072 
Q 2672 2072 3033 1817 
Q 3394 1563 3394 1038 
Q 3394 513 3033 256 
Q 2672 0 2003 0 
L 581 0 
L 581 3500 
z
" transform="scale(0.015625)"/>
      <path id="DejaVuSans-445" d="M 3513 3500 
L 2247 1797 
L 3578 0 
L 2900 0 
L 1881 1375 
L 863 0 
L 184 0 
L 1544 1831 
L 300 3500 
L 978 3500 
L 1906 2253 
L 2834 3500 
L 3513 3500 
z
" transform="scale(0.015625)"/>
      <path id="DejaVuSans-434" d="M 1384 459 
L 3053 459 
L 3053 3041 
L 1844 3041 
L 1844 2603 
Q 1844 1316 1475 628 
L 1384 459 
z
M 550 459 
Q 834 584 959 850 
Q 1266 1509 1266 2838 
L 1266 3500 
L 3631 3500 
L 3631 459 
L 4091 459 
L 4091 -884 
L 3631 -884 
L 3631 0 
L 794 0 
L 794 -884 
L 334 -884 
L 334 459 
L 550 459 
z
" transform="scale(0.015625)"/>
      <path id="DejaVuSans-442" d="M 188 3500 
L 3541 3500 
L 3541 3041 
L 2147 3041 
L 2147 0 
L 1581 0 
L 1581 3041 
L 188 3041 
L 188 3500 
z
" transform="scale(0.015625)"/>
     </defs>
     <use xlink:href="#DejaVuSans-413"/>
     <use xlink:href="#DejaVuSans-440" x="60.986328"/>
     <use xlink:href="#DejaVuSans-430" x="124.462891"/>
     <use xlink:href="#DejaVuSans-444" x="185.742188"/>
     <use xlink:href="#DejaVuSans-438" x="271.240234"/>
     <use xlink:href="#DejaVuSans-43a" x="336.230469"/>
     <use xlink:href="#DejaVuSans-20" x="396.630859"/>
     <use xlink:href="#DejaVuSans-432" x="428.417969"/>
     <use xlink:href="#DejaVuSans-20" x="487.353516"/>
     <use xlink:href="#DejaVuSans-43f" x="519.140625"/>
     <use xlink:href="#DejaVuSans-43e" x="584.521484"/>
     <use xlink:href="#DejaVuSans-43b" x="645.703125"/>
     <use xlink:href="#DejaVuSans-44f" x="709.619141"/>
     <use xlink:href="#DejaVuSans-440" x="769.775391"/>
     <use xlink:href="#DejaVuSans-43d" x="833.251953"/>
     <use xlink:href="#DejaVuSans-44b" x="898.632812"/>
     <use xlink:href="#DejaVuSans-445" x="977.587891"/>
     <use xlink:href="#DejaVuSans-20" x="1036.767578"/>
     <use xlink:href="#DejaVuSans-43a" x="1068.554688"/>
     <use xlink:href="#DejaVuSans-43e" x="1128.955078"/>
     <use xlink:href="#DejaVuSans-43e" x="1190.136719"/>
     <use xlink:href="#DejaVuSans-440" x="1251.318359"/>
     <use xlink:href="#DejaVuSans-434" x="1314.794922"/>
     <use xlink:href="#DejaVuSans-438" x="1383.935547"/>
     <use xlink:href="#DejaVuSans-43d" x="1448.925781"/>
     <use xlink:href="#DejaVuSans-430" x="1514.306641"/>
     <use xlink:href="#DejaVuSans-442" x="1575.585938"/>
     <use xlink:href="#DejaVuSans-430" x="1633.837891"/>
     <use xlink:href="#DejaVuSans-445" x="1695.117188"/>
    </g>
   </g>
   <g id="legend_1">
    <g id="patch_4">
     <path d="M 139.43125 333.160698 
L 226.93125 333.160698 
Q 228.93125 333.160698 228.93125 331.160698 
L 228.93125 311.860698 
Q 228.93125 309.860698 226.93125 309.860698 
L 139.43125 309.860698 
Q 137.43125 309.860698 137.43125 311.860698 
L 137.43125 331.160698 
Q 137.43125 333.160698 139.43125 333.160698 
z
" style="fill: #ffffff; opacity: 0.8; stroke: #cccccc; stroke-linejoin: miter"/>
    </g>
    <g id="line2d_17">
     <path d="M 141.43125 321.560698 
L 151.43125 321.560698 
L 161.43125 321.560698 
" style="fill: none; stroke: #1f77b4; stroke-width: 1.5; stroke-linecap: square"/>
    </g>
    <g id="text_17">
     <!-- $\rho = 2cos(\frac{\phi}{3})$ -->
     <g transform="translate(169.43125 325.060698) scale(0.1 -0.1)">
      <defs>
       <path id="DejaVuSans-Oblique-3c1" d="M 1203 2875 
Q 1453 3194 1981 3475 
Q 2188 3584 2756 3584 
Q 3394 3584 3694 3078 
Q 3994 2572 3834 1747 
Q 3672 922 3175 415 
Q 2678 -91 2041 -91 
Q 1656 -91 1409 63 
Q 1163 213 1044 525 
L 681 -1331 
L 103 -1331 
L 697 1716 
Q 838 2438 1203 2875 
z
M 3238 1747 
Q 3359 2381 3169 2744 
Q 2978 3103 2522 3103 
Q 2066 3103 1734 2744 
Q 1403 2381 1281 1747 
Q 1156 1113 1347 750 
Q 1538 391 1994 391 
Q 2450 391 2781 750 
Q 3113 1113 3238 1747 
z
" transform="scale(0.015625)"/>
       <path id="DejaVuSans-3d" d="M 678 2906 
L 4684 2906 
L 4684 2381 
L 678 2381 
L 678 2906 
z
M 678 1631 
L 4684 1631 
L 4684 1100 
L 678 1100 
L 678 1631 
z
" transform="scale(0.015625)"/>
       <path id="DejaVuSans-Oblique-63" d="M 3431 3366 
L 3316 2797 
Q 3109 2947 2876 3022 
Q 2644 3097 2394 3097 
Q 2119 3097 1870 3000 
Q 1622 2903 1453 2725 
Q 1184 2453 1037 2087 
Q 891 1722 891 1331 
Q 891 859 1127 628 
Q 1363 397 1844 397 
Q 2081 397 2348 469 
Q 2616 541 2906 684 
L 2797 116 
Q 2547 13 2283 -39 
Q 2019 -91 1741 -91 
Q 1044 -91 669 257 
Q 294 606 294 1253 
Q 294 1797 489 2255 
Q 684 2713 1069 3078 
Q 1331 3328 1684 3456 
Q 2038 3584 2456 3584 
Q 2700 3584 2940 3529 
Q 3181 3475 3431 3366 
z
" transform="scale(0.015625)"/>
       <path id="DejaVuSans-Oblique-6f" d="M 1625 -91 
Q 1009 -91 651 289 
Q 294 669 294 1325 
Q 294 1706 417 2101 
Q 541 2497 738 2766 
Q 1047 3184 1428 3384 
Q 1809 3584 2291 3584 
Q 2888 3584 3255 3212 
Q 3622 2841 3622 2241 
Q 3622 1825 3500 1412 
Q 3378 1000 3181 728 
Q 2875 309 2494 109 
Q 2113 -91 1625 -91 
z
M 891 1344 
Q 891 869 1089 633 
Q 1288 397 1691 397 
Q 2269 397 2648 901 
Q 3028 1406 3028 2181 
Q 3028 2634 2825 2865 
Q 2622 3097 2228 3097 
Q 1903 3097 1650 2945 
Q 1397 2794 1197 2484 
Q 1050 2253 970 1956 
Q 891 1659 891 1344 
z
" transform="scale(0.015625)"/>
       <path id="DejaVuSans-Oblique-73" d="M 3200 3397 
L 3091 2853 
Q 2863 2978 2609 3040 
Q 2356 3103 2088 3103 
Q 1634 3103 1373 2948 
Q 1113 2794 1113 2528 
Q 1113 2219 1719 2053 
Q 1766 2041 1788 2034 
L 1972 1978 
Q 2547 1819 2739 1644 
Q 2931 1469 2931 1166 
Q 2931 609 2489 259 
Q 2047 -91 1331 -91 
Q 1053 -91 747 -37 
Q 441 16 72 128 
L 184 722 
Q 500 559 806 475 
Q 1113 391 1394 391 
Q 1816 391 2080 572 
Q 2344 753 2344 1031 
Q 2344 1331 1650 1516 
L 1591 1531 
L 1394 1581 
Q 956 1697 753 1886 
Q 550 2075 550 2369 
Q 550 2928 970 3256 
Q 1391 3584 2113 3584 
Q 2397 3584 2667 3537 
Q 2938 3491 3200 3397 
z
" transform="scale(0.015625)"/>
       <path id="DejaVuSans-28" d="M 1984 4856 
Q 1566 4138 1362 3434 
Q 1159 2731 1159 2009 
Q 1159 1288 1364 580 
Q 1569 -128 1984 -844 
L 1484 -844 
Q 1016 -109 783 600 
Q 550 1309 550 2009 
Q 550 2706 781 3412 
Q 1013 4119 1484 4856 
L 1984 4856 
z
" transform="scale(0.015625)"/>
       <path id="DejaVuSans-Oblique-3d5" d="M 2991 4863 
L 2738 3572 
Q 3363 3572 3684 3094 
Q 4016 2606 3850 1747 
Q 3681 888 3159 400 
Q 2653 -78 2028 -78 
L 1784 -1331 
L 1213 -1331 
L 1456 -78 
Q 834 -78 509 400 
Q 178 888 347 1747 
Q 513 2606 1034 3094 
Q 1544 3572 2166 3572 
L 2419 4863 
L 2991 4863 
z
M 2128 434 
Q 2481 434 2784 756 
Q 3116 1116 3244 1747 
Q 3369 2372 3169 2738 
Q 2991 3059 2638 3059 
L 2128 434 
z
M 1556 434 
L 2066 3059 
Q 1716 3059 1413 2738 
Q 1072 2372 953 1747 
Q 834 1116 1028 756 
Q 1203 434 1556 434 
z
" transform="scale(0.015625)"/>
       <path id="DejaVuSans-29" d="M 513 4856 
L 1013 4856 
Q 1481 4119 1714 3412 
Q 1947 2706 1947 2009 
Q 1947 1309 1714 600 
Q 1481 -109 1013 -844 
L 513 -844 
Q 928 -128 1133 580 
Q 1338 1288 1338 2009 
Q 1338 2731 1133 3434 
Q 928 4138 513 4856 
z
" transform="scale(0.015625)"/>
      </defs>
      <use xlink:href="#DejaVuSans-Oblique-3c1" transform="translate(0 0.45625)"/>
      <use xlink:href="#DejaVuSans-3d" transform="translate(82.958984 0.45625)"/>
      <use xlink:href="#DejaVuSans-32" transform="translate(186.230469 0.45625)"/>
      <use xlink:href="#DejaVuSans-Oblique-63" transform="translate(249.853516 0.45625)"/>
      <use xlink:href="#DejaVuSans-Oblique-6f" transform="translate(304.833984 0.45625)"/>
      <use xlink:href="#DejaVuSans-Oblique-73" transform="translate(366.015625 0.45625)"/>
      <use xlink:href="#DejaVuSans-28" transform="translate(418.115234 0.45625)"/>
      <use xlink:href="#DejaVuSans-Oblique-3d5" transform="translate(457.128906 58.810938) scale(0.7)"/>
      <use xlink:href="#DejaVuSans-33" transform="translate(458.128906 -38.95) scale(0.7)"/>
      <use xlink:href="#DejaVuSans-29" transform="translate(515.805664 0.45625)"/>
      <path d="M 457.128906 19.253125 
L 457.128906 25.503125 
L 503.305664 25.503125 
L 503.305664 19.253125 
L 457.128906 19.253125 
z
"/>
     </g>
    </g>
   </g>
  </g>
 </g>
 <defs>
  <clipPath id="pa41dba40e5">
   <path d="M 333.782885 187.559063 
C 333.782885 167.782237 329.887282 148.197716 322.319018 129.926312 
C 314.750755 111.654908 303.657015 95.051953 289.672687 81.067625 
C 275.68836 67.083298 259.085405 55.989558 240.814001 48.421294 
C 222.542596 40.853031 202.958076 36.957428 183.18125 36.957428 
C 163.404424 36.957428 143.819904 40.853031 125.548499 48.421294 
C 107.277095 55.989558 90.67414 67.083298 76.689813 81.067625 
C 62.705485 95.051953 51.611745 111.654908 44.043482 129.926312 
C 36.475218 148.197716 32.579615 167.782237 32.579615 187.559063 
C 32.579615 207.335888 36.475218 226.920409 44.043482 245.191813 
C 51.611745 263.463217 62.705485 280.066172 76.689813 294.0505 
C 90.67414 308.034827 107.277095 319.128567 125.548499 326.696831 
C 143.819904 334.265094 163.404424 338.160698 183.18125 338.160698 
C 202.958076 338.160698 222.542596 334.265094 240.814001 326.696831 
C 259.085405 319.128567 275.68836 308.034827 289.672687 294.0505 
C 303.657015 280.066172 314.750755 263.463217 322.319018 245.191813 
C 329.887282 226.920409 333.782885 207.335888 333.782885 187.559063 
M 183.18125 187.559063 
C 183.18125 187.559063 183.18125 187.559063 183.18125 187.559063 
C 183.18125 187.559063 183.18125 187.559063 183.18125 187.559063 
C 183.18125 187.559063 183.18125 187.559063 183.18125 187.559063 
C 183.18125 187.559063 183.18125 187.559063 183.18125 187.559063 
C 183.18125 187.559063 183.18125 187.559063 183.18125 187.559063 
C 183.18125 187.559063 183.18125 187.559063 183.18125 187.559063 
C 183.18125 187.559063 183.18125 187.559063 183.18125 187.559063 
C 183.18125 187.559063 183.18125 187.559063 183.18125 187.559063 
C 183.18125 187.559063 183.18125 187.559063 183.18125 187.559063 
C 183.18125 187.559063 183.18125 187.559063 183.18125 187.559063 
C 183.18125 187.559063 183.18125 187.559063 183.18125 187.559063 
C 183.18125 187.559063 183.18125 187.559063 183.18125 187.559063 
C 183.18125 187.559063 183.18125 187.559063 183.18125 187.559063 
C 183.18125 187.559063 183.18125 187.559063 183.18125 187.559063 
C 183.18125 187.559063 183.18125 187.559063 183.18125 187.559063 
C 183.18125 187.559063 183.18125 187.559063 183.18125 187.559063 
z
"/>
  </clipPath>
 </defs>
</svg>
